<?xml version="1.0" encoding="utf-8"?>
<!-- Generator: Adobe Illustrator 23.0.3, SVG Export Plug-In . SVG Version: 6.00 Build 0)  -->
<svg version="1.1" xmlns="http://www.w3.org/2000/svg" xmlns:xlink="http://www.w3.org/1999/xlink" x="0px" y="0px"
	 viewBox="0 0 200 200" style="enable-background:new 0 0 200 200;" xml:space="preserve">
<style type="text/css">
	.st0{fill:#93278F;}
	.st1{fill:none;stroke:#93278F;stroke-width:15;stroke-miterlimit:10;}
</style>
<g id="Calque_1">
	<path class="st0" d="M100,84v-8c0,0,0-13,14-16s20,5,20,5s12-3,12-4s2,0,1,1s-5,10-7,9c0,0-1,1,1,1s7-3,7-3s2-1,1,1s-9,8-9,8l-1,13
		c0,0-3,14-5,16c0,0-12,29-44,31H76c0,0-16-2-23-7c0,0-2-2,1-2h10c0,0,15-4,17-7c0,0,2-2-1-1s0,0,0,0s-11-1-17-12c0,0,0-2,2-1h6
		c0,0,2-1,0-1c0,0-17-7-15-18c0,0,0-4,3-1l5,2c0,0,4,0,0-2s-7-10-7-10v-9c0,0,1-12,5-3"/>
</g>
<g id="Calque_2">
	<circle class="st1" cx="101" cy="98" r="87.5"/>
	<path class="st0" d="M84,79c0,0,20,18,38,18"/>
</g>
</svg>
