<svg id="Calque_1" data-name="Calque 1" xmlns="http://www.w3.org/2000/svg" viewBox="0 0 480.97 418.07"><defs><style>.cls-1{fill:#93278e;}.cls-2{fill:#faec21;}</style></defs><title>logoUVviolet-adapte</title><path class="cls-1" d="M362.05,1c7,14.13,15.44,27.5,23.3,41.17q47.23,82.17,94.82,164.14c1.54,2.66,1.67,4.48.13,7.13q-58.44,101-116.69,202.2c-1.4,2.44-2.9,3.43-5.81,3.43q-117-.13-234,0c-2.94,0-4.43-1-5.85-3.46Q60,314.85,1.75,214.26c-2-3.45-1.59-5.83.26-9Q61.11,103.15,120.05,1Zm-174,173.47,1.26-.46q7.59,11,15.19,22c1.22,1.75,2.48,4,5.11,2.32s1-3.72-.21-5.52c-1.49-2.2-3-4.38-4.52-6.57L196.47,174c2.08,0,3.07,0,4.06,0,7.72-.24,10.58-3.29,10.52-11.21-.05-7.25-3.41-10.69-10.63-10.78-4.82-.06-9.65.15-14.46-.07-3-.13-4,.59-4,3.81.19,12.8.08,25.6.07,38.41,0,2.22-.11,4.7,3,4.74s3.06-2.39,3.06-4.65C188,187.61,188.05,181,188.05,174.42ZM421.67,265c-5.52,0-9.68,0-13.84,0-1.94,0-3.57,0-3.95-2.63a2.54,2.54,0,0,0-3.72-2.13,3.3,3.3,0,0,0-2,4.12,7.84,7.84,0,0,0,7.75,6.57c3.65.21,7.33,0,11,.07s7.48.15,9.46-3.94c1.89-3.9-.5-6.67-2.61-9.48-5.4-7.2-10.86-14.35-16.17-21.61-1.21-1.66-3.87-3.29-2.86-5.32.83-1.65,3.65-.49,5.58-.63s3.67,0,5.5,0c2.47,0,5.06-.52,5.53,3.25.21,1.72,2,2.19,3.59,1.65s2.13-1.94,2.06-3.59c-.15-3.56-3.6-7-7.71-7.23a137.32,137.32,0,0,0-14.49,0c-5.87.37-8.66,6-5.33,10.84,3.76,5.49,7.94,10.7,11.91,16C414.61,255.28,417.8,259.66,421.67,265ZM81.05,173V157c0-2.38.21-5.12-3.23-5-3,.15-2.78,2.74-2.77,4.91,0,8.32,0,16.64,0,25C75,194.4,76.38,192.71,63.7,193c-4.45.11-5.81-1.55-5.72-5.83.22-10.31.06-20.62.08-30.93,0-2.18-.29-4.19-3-4.23-2.34,0-3,1.6-3,3.7,0,11.47-.12,22.95.1,34.42.09,5.23,3.73,8.51,9,8.76,3.32.16,6.65.1,10,0,6.41-.16,9.75-3.51,9.88-10C81.13,183.63,81.05,178.3,81.05,173Zm158.44,51c-3.82,0-7.65.07-11.48,0-2,0-3,.42-3,2.73q.12,20.73,0,41.45c0,2.14.65,2.92,2.85,2.89,7.49-.1,15-.05,22.47,0,2.22,0,4.1-.41,4-3.19-.09-2.47-1.85-2.83-3.85-2.82-4.33,0-8.69-.33-13,.09-5,.48-7-.88-6.57-6.32.53-7.37.13-7.45,7.5-7.74,2.18-.08,4.25-.31,4.31-2.95s-1.93-3-4.15-3.11c-7.53-.36-7.53-.41-7.53-8.09a31.23,31.23,0,0,0,0-3.49c-.3-2.56.6-3.54,3.3-3.44,5.32.19,10.66,0,16,.06,2.22,0,4.11-.39,4-3.17-.08-2.47-1.82-2.85-3.84-2.84C246.82,224,243.16,224,239.49,224Zm130.13,0c-3.83,0-7.67.12-11.49,0-2.38-.1-3.14.73-3.13,3.12.09,13.65.07,27.3,0,41,0,2,.39,3,2.72,3,7.65-.11,15.31-.05,23,0,2.09,0,3.66-.63,3.62-3.06s-1.69-2.95-3.74-2.94c-4.5,0-9-.39-13.48.1-5.13.57-6.49-1.2-6.18-6.21.46-7.56.11-7.62,7.37-7.86,2.15-.07,4.32-.2,4.42-2.83.13-3-2.18-3.16-4.52-3.23-7.15-.2-7.15-.24-7.15-7.47a42,42,0,0,0,0-4.49c-.25-2.49.9-3.1,3.19-3,5.49.12,11,0,16.48,0,2.09,0,3.67-.61,3.64-3s-1.67-3-3.73-3C376.94,224,373.28,224,369.62,224ZM228,198.91c2.58-.36,3.4-2.38,3.68-4.28.74-5.09,3.74-5.83,8.32-5.84s7.71.76,8.16,5.93a5.17,5.17,0,0,0,.68,1.86c.82,1.6,2,2.83,3.95,2.11s2.16-2.13,1.52-4c-.9-2.67-1.52-5.44-2.29-8.15q-4.34-15.34-8.7-30.69c-.51-1.8-1-3.69-3.34-3.75-1.79,0-2.54,1.36-3,2.87q-5.83,20.1-11.65,40.2C224.67,197.49,226,198.5,228,198.91Zm-89.12,48.51c-.35,4,3.55,10.49,7.81,18.8,3.44,6.71,10.27,6.48,13.93-.21,2.38-4.36,4.35-8.95,6.43-13.47a11.17,11.17,0,0,0,.32-9.22,161.36,161.36,0,0,0-7.61-15.65c-2.47-4.36-8.12-5.35-10.94-1.62A53.15,53.15,0,0,0,138.88,247.42Zm-31.83-.06c0,2,0,4,0,6-.07,3.64.86,7.79-.61,10.75-1.12,2.26-5.51.47-8.4.9a2.82,2.82,0,0,0-2.73,3,2.69,2.69,0,0,0,2.8,2.89q12,.09,24,0a2.66,2.66,0,0,0,2.74-2.94A2.75,2.75,0,0,0,122,265a19.19,19.19,0,0,0-4.48,0c-3.94.64-4.69-1.15-4.56-4.72.27-7.31.08-14.64.08-22,0-7.78,0-7.78,7.77-8.36.34,0,.67,0,1,0a2.81,2.81,0,0,0,3-2.76,2.77,2.77,0,0,0-3-3.16c-7.81-.05-15.63,0-23.45,0a2.76,2.76,0,0,0-3,2.74c-.11,2,1,3.08,3,3.18a22.36,22.36,0,0,0,4.48,0c3.67-.55,4.51,1.1,4.29,4.47C106.84,238.69,107.05,243,107.05,247.36ZM66.56,260.15c-3.32-11.68-9.77-20.89-8.53-32.27.22-2-.49-3.7-2.85-3.85a2.55,2.55,0,0,0-3,2.6c.07,4.61-.91,9.29.84,13.83,3.4,8.83,6.74,17.69,10.13,26.54.64,1.68,1,3.77,3.34,3.85s2.8-2,3.45-3.7c3-7.75,5.64-15.64,9-23.23,2.33-5.3,2.12-10.67,2.15-16.13,0-2.08-.62-3.73-3-3.75s-3.23,1.6-3,3.68C76.29,239.12,69.9,248.41,66.56,260.15ZM157.05,178c0-5.49-.05-11,0-16.46,0-1.44-.83-3.49,2-3.57,2-.06,3,.46,3.06,2.69,0,1.81,1.44,2.51,3.14,2.4a2.69,2.69,0,0,0,2.7-3c0-1.82-.06-3.66,0-5.48s-.58-2.66-2.55-2.64q-12,.1-23.93,0c-2,0-2.67.74-2.56,2.63s0,3.66,0,5.48a2.68,2.68,0,0,0,2.69,3c1.7.12,3.17-.58,3.15-2.38,0-3.28,2.15-2.66,4.06-2.64,3.21,0,2,2.53,2,4,.1,11,.07,21.94,0,32.91,0,2,.42,3.81,2.77,3.94,2.66.15,3.26-1.69,3.25-4C157,189.25,157.05,183.6,157.05,178Zm123,71.57q0,8.22,0,16.45c0,2.19-.23,4.76,2.82,4.87,3.45.12,3.19-2.64,3.19-5V232.94c0-1.48-.27-3.09,2.13-3,1.59.06,2.91,0,2.93,2.23s1.75,3.49,3.72,2.68c4.12-1.68,1.61-5.5,2.18-8.34.48-2.42-1.19-2.59-3.05-2.58-6.48,0-13,0-19.44,0-7,0-6.94,0-6.49,7.15.11,1.75.16,3.46,2.3,3.83s3.62-.54,3.69-2.86c.1-3.21,2.47-1.91,4-2.06,2.42-.25,2,1.65,2,3.06C280.06,238.55,280,244,280.05,249.52Zm49,.57c0-5.32-.1-10.64.06-16,.05-1.48-1.29-3.83,1.86-4.2,2.45-.29,3.16.73,3.27,3,.08,1.5,1.45,2.12,2.94,2A2.65,2.65,0,0,0,340,232.2c.06-1.83-.08-3.67.07-5.49.19-2.24-.82-2.82-2.91-2.79-7.81.09-15.62.07-23.43,0-1.82,0-2.83.45-2.7,2.49.11,1.82,0,3.66,0,5.48s.77,2.91,2.56,3.1,3.28-.43,3.26-2.23c0-3.64,2.44-2.87,4.43-2.75,2.79.17,1.67,2.46,1.68,3.84.1,10.47,0,20.94.07,31.41,0,2.38-.71,5.65,3.09,5.54s2.84-3.42,2.87-5.76C329.11,260.07,329.05,255.08,329.05,250.09Zm-228-77.1c0-5.66,0-11.32,0-17,0-2.27-.58-4.12-3.24-4-2.36.13-2.79,1.93-2.78,4,0,13.31.06,26.61,0,39.92,0,2.43.83,3.12,3.16,3.09,7.32-.12,14.64-.06,22,0,2.13,0,4.18-.16,4.2-3s-2-3-4.14-3c-5,0-10-.17-15,.06-3.14.15-4.43-.64-4.24-4.06C101.26,183.65,101.05,178.31,101.05,173Zm81,74.95c0,6.49.13,13-.07,19.46-.08,2.88.87,3.68,3.67,3.61,7.15-.18,14.31-.07,21.46-.05,2.13,0,4.18-.15,4.21-3s-2-3.05-4.13-3c-4.65,0-9.33-.28-14,.08-4,.32-5.43-.74-5.29-5.07.34-10.46.1-20.95.12-31.43,0-2.33-.18-4.63-3.23-4.48-2.7.14-2.8,2.32-2.79,4.43C182.06,235,182.05,241.45,182.05,247.94Z" transform="translate(-0.42 -0.95)"/><path class="cls-2" d="M188.05,174.42c0,6.59,0,13.19,0,19.78,0,2.26,0,4.69-3.06,4.65s-3-2.52-3-4.74c0-12.81.12-25.61-.07-38.41-.05-3.22,1-3.94,4-3.81,4.81.22,9.64,0,14.46.07,7.22.09,10.58,3.53,10.63,10.78.06,7.92-2.8,11-10.52,11.21-1,0-2,0-4.06,0l8.41,12.28c1.51,2.19,3,4.37,4.52,6.57,1.22,1.8,2.91,3.76.21,5.52s-3.89-.57-5.11-2.32q-7.62-11-15.19-22Zm7.8-6.47h5c1.73,0,3.67-.14,4-2.15.35-2.22.94-4.66-.6-6.74-.84-1.14-14.47-1.71-15.56-.74a2.55,2.55,0,0,0-.51.8c-2.16,4.73.49,8.83,5.71,8.83Z" transform="translate(-0.42 -0.95)"/><path class="cls-2" d="M421.67,265c-3.87-5.29-7.06-9.67-10.29-14-4-5.35-8.15-10.56-11.91-16-3.33-4.86-.54-10.47,5.33-10.84a137.32,137.32,0,0,1,14.49,0c4.11.19,7.56,3.67,7.71,7.23.07,1.65-.41,3-2.06,3.59s-3.38.07-3.59-1.65c-.47-3.77-3.06-3.26-5.53-3.25-1.83,0-3.67-.1-5.5,0s-4.75-1-5.58.63c-1,2,1.65,3.66,2.86,5.32,5.31,7.26,10.77,14.41,16.17,21.61,2.11,2.81,4.5,5.58,2.61,9.48-2,4.09-5.74,4-9.46,3.94s-7.35.14-11-.07a7.84,7.84,0,0,1-7.75-6.57,3.3,3.3,0,0,1,2-4.12,2.54,2.54,0,0,1,3.72,2.13c.38,2.59,2,2.64,3.95,2.63C412,264.93,416.15,265,421.67,265Z" transform="translate(-0.42 -0.95)"/><path class="cls-2" d="M81.05,173c0,5.32.08,10.65,0,16-.13,6.48-3.47,9.83-9.88,10-3.33.08-6.66.14-10,0-5.3-.25-8.94-3.53-9-8.76-.22-11.47-.08-22.95-.1-34.42,0-2.1.68-3.74,3-3.7,2.71,0,3,2.05,3,4.23,0,10.31.14,20.62-.08,30.93-.09,4.28,1.27,5.94,5.72,5.83C76.38,192.71,75,194.4,75,181.93c0-8.31,0-16.63,0-25,0-2.17-.28-4.76,2.77-4.91,3.44-.17,3.23,2.57,3.23,5Z" transform="translate(-0.42 -0.95)"/><path class="cls-2" d="M239.49,224c3.67,0,7.33,0,11,0,2,0,3.76.37,3.84,2.84.1,2.78-1.79,3.18-4,3.17-5.32,0-10.66.13-16-.06-2.7-.1-3.6.88-3.3,3.44a31.23,31.23,0,0,1,0,3.49c0,7.68,0,7.73,7.53,8.09,2.22.1,4.21.47,4.15,3.11s-2.13,2.87-4.31,2.95c-7.37.29-7,.37-7.5,7.74-.39,5.44,1.55,6.8,6.57,6.32,4.29-.42,8.65-.07,13-.09,2,0,3.76.35,3.85,2.82.11,2.78-1.77,3.2-4,3.19-7.49,0-15-.07-22.47,0-2.2,0-2.86-.75-2.85-2.89q.11-20.72,0-41.45c0-2.31,1-2.78,3-2.73C231.84,224,235.67,224,239.49,224Z" transform="translate(-0.42 -0.95)"/><path class="cls-2" d="M369.62,224c3.66,0,7.32,0,11,0,2.06,0,3.7.52,3.73,3s-1.55,3-3.64,3c-5.49,0-11,.09-16.48,0-2.29-.06-3.44.55-3.19,3a42,42,0,0,1,0,4.49c0,7.23,0,7.27,7.15,7.47,2.34.07,4.65.23,4.52,3.23-.1,2.63-2.27,2.76-4.42,2.83-7.26.24-6.91.3-7.37,7.86-.31,5,1.05,6.78,6.18,6.21,4.44-.49,9-.08,13.48-.1,2.05,0,3.7.5,3.74,2.94S382.8,271,380.71,271c-7.66,0-15.32-.07-23,0-2.33,0-2.73-1-2.72-3,.05-13.65.07-27.3,0-41,0-2.39.75-3.22,3.13-3.12C362,224.07,365.79,224,369.62,224Z" transform="translate(-0.42 -0.95)"/><path class="cls-2" d="M228,198.91c-2-.41-3.33-1.42-2.65-3.77q5.79-20.1,11.65-40.2c.44-1.51,1.19-2.91,3-2.87,2.31.06,2.83,2,3.34,3.75q4.34,15.35,8.7,30.69c.77,2.71,1.39,5.48,2.29,8.15.64,1.9.42,3.33-1.52,4s-3.13-.51-3.95-2.11a5.17,5.17,0,0,1-.68-1.86c-.45-5.17-3.54-5.94-8.16-5.93s-7.58.75-8.32,5.84C231.4,196.53,230.58,198.55,228,198.91Zm12-32.57c-1.62,5.76-2.87,10-4,14.21-.87,3.39,1.94,2.5,3.32,2.29,1.64-.25,5.11,1.74,4.59-2C243.27,176.41,241.59,172.12,240,166.34Z" transform="translate(-0.42 -0.95)"/><path class="cls-2" d="M138.88,247.42a53.15,53.15,0,0,1,9.94-21.37c2.82-3.73,8.47-2.74,10.94,1.62a161.36,161.36,0,0,1,7.61,15.65,11.17,11.17,0,0,1-.32,9.22c-2.08,4.52-4.05,9.11-6.43,13.47-3.66,6.69-10.49,6.92-13.93.21C142.43,257.91,138.53,251.39,138.88,247.42Zm23.47.08a75.74,75.74,0,0,0-7.51-16.58c-1.17-2.06-2.59-.46-3.29,1-1.78,3.57-3.45,7.2-5.17,10.8-1.18,2.47-2,5.05-.85,7.69,1.88,4.26,3.9,8.46,6,12.63.67,1.36,2.11,3.09,3.29,1.05C157.78,258.9,160.62,253.62,162.35,247.5Z" transform="translate(-0.42 -0.95)"/><path class="cls-2" d="M107.05,247.36c0-4.33-.21-8.67.06-13,.22-3.37-.62-5-4.29-4.47a22.36,22.36,0,0,1-4.48,0c-2-.1-3.14-1.21-3-3.18a2.76,2.76,0,0,1,3-2.74c7.82,0,15.64,0,23.45,0a2.77,2.77,0,0,1,3,3.16,2.81,2.81,0,0,1-3,2.76c-.33,0-.66,0-1,0-7.77.58-7.77.58-7.77,8.36,0,7.32.19,14.65-.08,22-.13,3.57.62,5.36,4.56,4.72a19.19,19.19,0,0,1,4.48,0,2.75,2.75,0,0,1,2.78,2.92,2.66,2.66,0,0,1-2.74,2.94q-12,.12-24,0A2.69,2.69,0,0,1,95.3,268,2.82,2.82,0,0,1,98,265c2.89-.43,7.28,1.36,8.4-.9,1.47-3,.54-7.11.61-10.75C107.08,251.35,107.05,249.35,107.05,247.36Z" transform="translate(-0.42 -0.95)"/><path class="cls-2" d="M66.56,260.15c3.34-11.74,9.73-21,8.52-32.43-.23-2.08.66-3.71,3-3.68s3,1.67,3,3.75c0,5.46.18,10.83-2.15,16.13-3.34,7.59-6,15.48-9,23.23-.65,1.69-1.11,3.77-3.45,3.7s-2.7-2.17-3.34-3.85c-3.39-8.85-6.73-17.71-10.13-26.54-1.75-4.54-.77-9.22-.84-13.83a2.55,2.55,0,0,1,3-2.6c2.36.15,3.07,1.82,2.85,3.85C56.79,239.26,63.24,248.47,66.56,260.15Z" transform="translate(-0.42 -0.95)"/><path class="cls-2" d="M157.05,178c0,5.65,0,11.3,0,17,0,2.27-.59,4.11-3.25,4-2.35-.13-2.78-1.92-2.77-3.94,0-11,.05-21.94,0-32.91,0-1.5,1.19-4-2-4-1.91,0-4.09-.64-4.06,2.64,0,1.8-1.45,2.5-3.15,2.38a2.68,2.68,0,0,1-2.69-3c0-1.82.06-3.66,0-5.48s.6-2.65,2.56-2.63q12,.1,23.93,0c2,0,2.65.75,2.55,2.64s0,3.66,0,5.48a2.69,2.69,0,0,1-2.7,3c-1.7.11-3.11-.59-3.14-2.4-.05-2.23-1-2.75-3.06-2.69-2.87.08-2,2.13-2,3.57C157,167,157.05,172.46,157.05,178Z" transform="translate(-0.42 -0.95)"/><path class="cls-2" d="M280,249.52c0-5.48,0-11,0-16.45,0-1.41.42-3.31-2-3.06-1.54.15-3.91-1.15-4,2.06-.07,2.32-1.5,3.25-3.69,2.86s-2.19-2.08-2.3-3.83c-.45-7.15-.48-7.15,6.49-7.15,6.48,0,13,0,19.44,0,1.86,0,3.53.16,3.05,2.58-.57,2.84,1.94,6.66-2.18,8.34-2,.81-3.7-.34-3.72-2.68s-1.34-2.17-2.93-2.23c-2.4-.09-2.13,1.52-2.13,3v32.91c0,2.35.26,5.11-3.19,5-3.05-.11-2.82-2.68-2.82-4.87Q280.06,257.75,280,249.52Z" transform="translate(-0.42 -0.95)"/><path class="cls-2" d="M329.05,250.09c0,5,.06,10,0,15,0,2.34.89,5.64-2.87,5.76s-3.08-3.16-3.09-5.54c0-10.47,0-20.94-.07-31.41,0-1.38,1.11-3.67-1.68-3.84-2-.12-4.46-.89-4.43,2.75,0,1.8-1.6,2.4-3.26,2.23s-2.55-1.37-2.56-3.1.08-3.66,0-5.48c-.13-2,.88-2.5,2.7-2.49,7.81.06,15.62.08,23.43,0,2.09,0,3.1.55,2.91,2.79-.15,1.82,0,3.66-.07,5.49a2.65,2.65,0,0,1-2.82,2.81c-1.49.07-2.86-.55-2.94-2-.11-2.29-.82-3.31-3.27-3-3.15.37-1.81,2.72-1.86,4.2C329,239.45,329.05,244.77,329.05,250.09Z" transform="translate(-0.42 -0.95)"/><path class="cls-2" d="M101.05,173c0,5.32.21,10.66-.08,16-.19,3.42,1.1,4.21,4.24,4.06,5-.23,10,0,15-.06,2.16,0,4.17.22,4.14,3s-2.07,3-4.2,3c-7.32,0-14.64-.08-22,0-2.33,0-3.18-.66-3.16-3.09.1-13.31.06-26.61,0-39.92,0-2,.42-3.82,2.78-4,2.66-.14,3.25,1.71,3.24,4C101,161.67,101.05,167.33,101.05,173Z" transform="translate(-0.42 -0.95)"/><path class="cls-2" d="M182.05,247.94c0-6.49,0-13,0-19.46,0-2.11.09-4.29,2.79-4.43,3-.15,3.23,2.15,3.23,4.48,0,10.48.22,21-.12,31.43-.14,4.33,1.24,5.39,5.29,5.07,4.63-.36,9.31-.07,14-.08,2.16,0,4.16.24,4.13,3s-2.08,3-4.21,3c-7.15,0-14.31-.13-21.46.05-2.8.07-3.75-.73-3.67-3.61C182.18,260.92,182.05,254.43,182.05,247.94Z" transform="translate(-0.42 -0.95)"/><path class="cls-1" d="M195.85,168h-2c-5.22,0-7.87-4.1-5.71-8.83a2.55,2.55,0,0,1,.51-.8c1.09-1,14.72-.4,15.56.74,1.54,2.08.95,4.52.6,6.74-.31,2-2.25,2.15-4,2.15Z" transform="translate(-0.42 -0.95)"/><path class="cls-1" d="M240,166.34c1.63,5.78,3.31,10.07,3.94,14.51.52,3.73-3,1.74-4.59,2-1.38.21-4.19,1.1-3.32-2.29C237.09,176.3,238.34,172.1,240,166.34Z" transform="translate(-0.42 -0.95)"/><path class="cls-1" d="M162.35,247.5c-1.73,6.12-4.57,11.4-7.56,16.54-1.18,2-2.62.31-3.29-1.05-2.07-4.17-4.09-8.37-6-12.63-1.16-2.64-.33-5.22.85-7.69,1.72-3.6,3.39-7.23,5.17-10.8.7-1.41,2.12-3,3.29-1A75.74,75.74,0,0,1,162.35,247.5Z" transform="translate(-0.42 -0.95)"/></svg>